<svg width="117" height="117" viewBox="0 0 117 117" fill="none" xmlns="http://www.w3.org/2000/svg">
<g id="Component 1">
<g id="Ellipse 15" filter="url(#filter0_d_6_485)">
<ellipse cx="58.5" cy="54.5" rx="32.5" ry="32.5" transform="rotate(-180 58.5 54.5)" fill="white" fill-opacity="0.4" shape-rendering="crispEdges"/>
</g>
<g id="Ellipse 16" filter="url(#filter1_d_6_485)">
<ellipse cx="58.5" cy="54.5" rx="24.5" ry="24.5" transform="rotate(-180 58.5 54.5)" fill="white"/>
</g>
<path id="Arrow 15" d="M51.6464 53.6464C51.4512 53.8417 51.4512 54.1583 51.6464 54.3536L54.8284 57.5355C55.0237 57.7308 55.3403 57.7308 55.5355 57.5355C55.7308 57.3403 55.7308 57.0237 55.5355 56.8284L52.7071 54L55.5355 51.1716C55.7308 50.9763 55.7308 50.6597 55.5355 50.4645C55.3403 50.2692 55.0237 50.2692 54.8284 50.4645L51.6464 53.6464ZM64 53.5L52 53.5L52 54.5L64 54.5L64 53.5Z" fill="#343434"/>
</g>
<defs>
<filter id="filter0_d_6_485" x="0" y="0" width="117" height="117" filterUnits="userSpaceOnUse" color-interpolation-filters="sRGB">
<feFlood flood-opacity="0" result="BackgroundImageFix"/>
<feColorMatrix in="SourceAlpha" type="matrix" values="0 0 0 0 0 0 0 0 0 0 0 0 0 0 0 0 0 0 127 0" result="hardAlpha"/>
<feOffset dy="4"/>
<feGaussianBlur stdDeviation="13"/>
<feComposite in2="hardAlpha" operator="out"/>
<feColorMatrix type="matrix" values="0 0 0 0 0 0 0 0 0 0 0 0 0 0 0 0 0 0 0.05 0"/>
<feBlend mode="normal" in2="BackgroundImageFix" result="effect1_dropShadow_6_485"/>
<feBlend mode="normal" in="SourceGraphic" in2="effect1_dropShadow_6_485" result="shape"/>
</filter>
<filter id="filter1_d_6_485" x="8" y="8" width="101" height="101" filterUnits="userSpaceOnUse" color-interpolation-filters="sRGB">
<feFlood flood-opacity="0" result="BackgroundImageFix"/>
<feColorMatrix in="SourceAlpha" type="matrix" values="0 0 0 0 0 0 0 0 0 0 0 0 0 0 0 0 0 0 127 0" result="hardAlpha"/>
<feOffset dy="4"/>
<feGaussianBlur stdDeviation="13"/>
<feComposite in2="hardAlpha" operator="out"/>
<feColorMatrix type="matrix" values="0 0 0 0 0 0 0 0 0 0 0 0 0 0 0 0 0 0 0.05 0"/>
<feBlend mode="normal" in2="BackgroundImageFix" result="effect1_dropShadow_6_485"/>
<feBlend mode="normal" in="SourceGraphic" in2="effect1_dropShadow_6_485" result="shape"/>
</filter>
</defs>
</svg>
