<svg width="37" height="70" viewBox="0 0 37 70" fill="none" xmlns="http://www.w3.org/2000/svg">
<path d="M0 7.1L-0.339058 6.15923L-1.20992 6.4731L-0.964095 7.36556L0 7.1ZM19.7 -3.8147e-06V-1H19.5253L19.3609 -0.940771L19.7 -3.8147e-06ZM36.7 -3.8147e-06H37.7V-1H36.7V-3.8147e-06ZM36.7 70V71H37.7V70H36.7ZM16.7 70H15.7V71H16.7V70ZM16.7 20.9H17.7V19.632L16.4669 19.9275L16.7 20.9ZM4.6 23.8L3.63591 24.0656L3.8927 24.9978L4.83307 24.7725L4.6 23.8ZM0.339058 8.04076L20.0391 0.940762L19.3609 -0.940771L-0.339058 6.15923L0.339058 8.04076ZM19.7 0.999996H36.7V-1H19.7V0.999996ZM35.7 -3.8147e-06V70H37.7V-3.8147e-06H35.7ZM36.7 69H16.7V71H36.7V69ZM17.7 70V20.9H15.7V70H17.7ZM16.4669 19.9275L4.36693 22.8275L4.83307 24.7725L16.9331 21.8725L16.4669 19.9275ZM5.5641 23.5344L0.964095 6.83444L-0.964095 7.36556L3.63591 24.0656L5.5641 23.5344Z" fill="#27D274"/>
</svg>
