<svg width="53" height="72" viewBox="0 0 53 72" fill="none" xmlns="http://www.w3.org/2000/svg">
<path d="M52.6 72V73H53.6V72H52.6ZM2 72H1V73H2V72ZM2 57.4L1.2652 56.7217L1 57.009V57.4H2ZM24.8 32.7L25.5348 33.3783L25.5401 33.3726L25.5452 33.3668L24.8 32.7ZM26.5 30.8L25.7929 30.0929L25.7733 30.1125L25.7548 30.1332L26.5 30.8ZM29.3 27.8L28.5407 27.1492L28.5333 27.1579L28.526 27.1668L29.3 27.8ZM29.9 20.9L30.5757 20.1628H30.5757L29.9 20.9ZM18.1 26.9L17.6211 27.7779L18.6273 28.3267L19.0347 27.2554L18.1 26.9ZM0.5 17.3L-0.419724 16.9074L-0.776329 17.7429L0.0211479 18.1779L0.5 17.3ZM10.7 4.8L11.2401 5.64159L11.2433 5.63956L10.7 4.8ZM43.7 6.3L43.0766 7.0819L43.7 6.3ZM48.3 33.4L47.4458 32.8801L47.4416 32.8869L47.4376 32.8938L48.3 33.4ZM39.7 44.7L40.4438 45.3685L40.4505 45.3609L39.7 44.7ZM32.6 52.6L31.8562 51.9316L30.3568 53.6H32.6V52.6ZM52.6 52.6H53.6V51.6H52.6V52.6ZM52.6 71H2V73H52.6V71ZM3 72V57.4H1V72H3ZM2.7348 58.0783L25.5348 33.3783L24.0652 32.0217L1.2652 56.7217L2.7348 58.0783ZM25.5452 33.3668L27.2452 31.4668L25.7548 30.1332L24.0548 32.0332L25.5452 33.3668ZM27.2071 31.5071C28.4805 30.2337 29.4419 29.2057 30.074 28.4332L28.526 27.1668C27.9581 27.8609 27.0528 28.833 25.7929 30.0929L27.2071 31.5071ZM30.0593 28.4508C31.3454 26.9503 32.1 25.3937 32.1 23.8H30.1C30.1 24.7396 29.6546 25.8497 28.5407 27.1492L30.0593 28.4508ZM32.1 23.8C32.1 22.3527 31.6055 21.1068 30.5757 20.1628L29.2243 21.6371C29.7945 22.1599 30.1 22.8473 30.1 23.8H32.1ZM30.5757 20.1628C29.5272 19.2017 28.0804 18.8 26.4 18.8V20.8C27.7863 20.8 28.6728 21.1316 29.2243 21.6372L30.5757 20.1628ZM26.4 18.8C24.3016 18.8 22.4444 19.4726 20.875 20.8151C19.3243 22.1415 18.1028 24.0794 17.1653 26.5445L19.0347 27.2554C19.8972 24.9873 20.959 23.3751 22.175 22.3349C23.3723 21.3108 24.7651 20.8 26.4 20.8V18.8ZM18.5789 26.0221L0.978852 16.4221L0.0211479 18.1779L17.6211 27.7779L18.5789 26.0221ZM1.41972 17.6926C3.68417 12.3873 6.96197 8.38726 11.2401 5.64158L10.1599 3.95841C5.5047 6.94607 1.98249 11.2794 -0.419724 16.9074L1.41972 17.6926ZM11.2433 5.63956C15.6046 2.81754 20.5469 1.4 26.1 1.4V-0.600002C20.1864 -0.600002 14.8621 0.915791 10.1567 3.96042L11.2433 5.63956ZM26.1 1.4C32.6923 1.4 38.3346 3.30108 43.0766 7.0819L44.3234 5.5181C39.1988 1.43225 33.1077 -0.600002 26.1 -0.600002V1.4ZM43.0766 7.0819C47.7515 10.8092 50.1 15.8772 50.1 22.4H52.1C52.1 15.3228 49.5152 9.65749 44.3234 5.5181L43.0766 7.0819ZM50.1 22.4C50.1 26.5181 49.2005 29.9974 47.4458 32.8801L49.1542 33.9199C51.1329 30.6693 52.1 26.8152 52.1 22.4H50.1ZM47.4376 32.8938C45.6842 35.8811 42.8648 39.593 38.9495 44.0391L40.4505 45.3609C44.4019 40.8737 47.3158 37.0523 49.1624 33.9062L47.4376 32.8938ZM38.9562 44.0316L31.8562 51.9316L33.3438 53.2684L40.4438 45.3684L38.9562 44.0316ZM32.6 53.6H52.6V51.6H32.6V53.6ZM51.6 52.6V72H53.6V52.6H51.6Z" fill="#27D274"/>
</svg>
