<svg width="53" height="72" viewBox="0 0 53 72" fill="none" xmlns="http://www.w3.org/2000/svg">
<path d="M48.7 15.4L49.4654 16.0436L49.7 15.7646V15.4H48.7ZM37.6 28.6L36.8346 27.9564L35.8556 29.1207L37.3127 29.5578L37.6 28.6ZM48.5 35.7L47.7114 36.3151L47.7191 36.3247L48.5 35.7ZM45.1 65.6L44.4702 64.8232L44.465 64.8275L45.1 65.6ZM10.3 67.4L9.76551 68.2452L9.77451 68.2508L10.3 67.4ZM0.5 55L0.00226978 54.1327L-0.731633 54.5538L-0.437749 55.3473L0.5 55ZM18.1 44.9L19.061 44.6235L18.7084 43.3979L17.6023 44.0327L18.1 44.9ZM30.8 50.8L30.1643 50.0281L30.1528 50.0376L30.1415 50.0474L30.8 50.8ZM22.2 42L21.3702 42.558L21.6674 43H22.2V42ZM14.4 30.4L13.6398 29.7503L13.1464 30.3277L13.5702 30.958L14.4 30.4ZM23.8 19.4L24.5602 20.0496L25.9699 18.4H23.8V19.4ZM2.7 19.4H1.7V20.4H2.7V19.4ZM2.7 -3.8147e-06V-1H1.7V-3.8147e-06H2.7ZM48.7 -3.8147e-06H49.7V-1H48.7V-3.8147e-06ZM47.9346 14.7564L36.8346 27.9564L38.3654 29.2436L49.4654 16.0436L47.9346 14.7564ZM37.3127 29.5578C41.8121 30.9077 45.2577 33.1692 47.7115 36.315L49.2885 35.085C46.5423 31.5642 42.7212 29.0923 37.8873 27.6422L37.3127 29.5578ZM47.7191 36.3247C50.2244 39.4562 51.5 43.3269 51.5 48H53.5C53.5 42.9398 52.109 38.6104 49.2809 35.0753L47.7191 36.3247ZM51.5 48C51.5 55.5042 49.1184 61.0544 44.4702 64.8232L45.7298 66.3768C50.9483 62.1456 53.5 55.9624 53.5 48H51.5ZM44.465 64.8275C39.8107 68.653 33.849 70.6 26.5 70.6V72.6C34.2177 72.6 40.656 70.547 45.735 66.3725L44.465 64.8275ZM26.5 70.6C20.3858 70.6 15.1749 69.2356 10.8255 66.5492L9.77451 68.2508C14.4918 71.1644 20.0808 72.6 26.5 72.6V70.6ZM10.8345 66.5548C6.50055 63.8142 3.36754 59.8631 1.43775 54.6527L-0.437749 55.3473C1.63246 60.9369 5.03278 65.2524 9.76554 68.2452L10.8345 66.5548ZM0.99773 55.8673L18.5977 45.7673L17.6023 44.0327L0.00226978 54.1327L0.99773 55.8673ZM17.139 45.1765C17.8735 47.7297 19.0041 49.7481 20.594 51.1298C22.2001 52.5256 24.1929 53.2 26.5 53.2V51.2C24.6071 51.2 23.0999 50.6578 21.906 49.6202C20.6959 48.5686 19.7265 46.937 19.061 44.6235L17.139 45.1765ZM26.5 53.2C28.4749 53.2 30.1645 52.6848 31.4585 51.5526L30.1415 50.0474C29.3021 50.7819 28.1251 51.2 26.5 51.2V53.2ZM31.4357 51.5719C32.8223 50.43 33.5 48.8683 33.5 47H31.5C31.5 48.3317 31.0444 49.3033 30.1643 50.0281L31.4357 51.5719ZM33.5 47C33.5 45.1264 32.9292 43.556 31.6402 42.4818C30.3861 41.4367 28.6142 41 26.5 41V43C28.3858 43 29.6139 43.3966 30.3598 44.0182C31.0708 44.6107 31.5 45.5403 31.5 47H33.5ZM26.5 41H22.2V43H26.5V41ZM23.0298 41.442L15.2298 29.842L13.5702 30.958L21.3702 42.558L23.0298 41.442ZM15.1602 31.0496L24.5602 20.0496L23.0398 18.7503L13.6398 29.7503L15.1602 31.0496ZM23.8 18.4H2.7V20.4H23.8V18.4ZM3.7 19.4V-3.8147e-06H1.7V19.4H3.7ZM2.7 0.999996H48.7V-1H2.7V0.999996ZM47.7 -3.8147e-06V15.4H49.7V-3.8147e-06H47.7Z" fill="#27D274"/>
</svg>
