<svg width="56" height="70" viewBox="0 0 56 70" fill="none" xmlns="http://www.w3.org/2000/svg">
<path d="M49 41.8H48V42.8H49V41.8ZM56 41.8H57V40.8H56V41.8ZM56 59.8V60.8H57V59.8H56ZM49 59.8V58.8H48V59.8H49ZM49 70V71H50V70H49ZM29.4 70H28.4V71H29.4V70ZM29.4 59.8H30.4V58.8H29.4V59.8ZM1.19209e-07 59.8H-1V60.8H1.19209e-07V59.8ZM1.19209e-07 41.8L-0.907896 41.3808L-1 41.5803V41.8H1.19209e-07ZM19.3 -3.8147e-06V-1H18.6603L18.3921 -0.419201L19.3 -3.8147e-06ZM42 -3.8147e-06L42.9054 0.42454L43.5734 -1H42V-3.8147e-06ZM22.4 41.8L21.4946 41.3755L20.8266 42.8H22.4V41.8ZM29.4 41.8V42.8H30.4V41.8H29.4ZM29.4 32V31H28.4V32H29.4ZM49 32H50V31H49V32ZM49 42.8H56V40.8H49V42.8ZM55 41.8V59.8H57V41.8H55ZM56 58.8H49V60.8H56V58.8ZM48 59.8V70H50V59.8H48ZM49 69H29.4V71H49V69ZM30.4 70V59.8H28.4V70H30.4ZM29.4 58.8H1.19209e-07V60.8H29.4V58.8ZM1 59.8V41.8H-1V59.8H1ZM0.907896 42.2192L20.2079 0.419191L18.3921 -0.419201L-0.907896 41.3808L0.907896 42.2192ZM19.3 0.999996H42V-1H19.3V0.999996ZM41.0946 -0.424549L21.4946 41.3755L23.3054 42.2245L42.9054 0.42454L41.0946 -0.424549ZM22.4 42.8H29.4V40.8H22.4V42.8ZM30.4 41.8V32H28.4V41.8H30.4ZM29.4 33H49V31H29.4V33ZM48 32V41.8H50V32H48Z" fill="#27D274"/>
</svg>
