<svg width="54" height="72" viewBox="0 0 54 72" fill="none" xmlns="http://www.w3.org/2000/svg">
<path d="M25.3 24.5L24.3031 24.4218L24.2185 25.5H25.3V24.5ZM46.7 30.4L47.3554 29.6447L46.7 30.4ZM46.1 65.3L46.7534 66.0571L46.7599 66.0513L46.1 65.3ZM10.5 67.4L9.97655 68.2521L9.98551 68.2575L10.5 67.4ZM0.5 55L0.00226978 54.1327L-0.731633 54.5538L-0.437749 55.3473L0.5 55ZM18.1 44.9L19.061 44.6235L18.7084 43.3979L17.6023 44.0327L18.1 44.9ZM31.9 50.9L32.5306 51.6761L32.5448 51.6646L32.5585 51.6526L31.9 50.9ZM4.5 42.2L3.50235 42.1314L3.42892 43.2H4.5V42.2ZM7.4 -3.8147e-06V-1H6.46636L6.40235 -0.0685635L7.4 -3.8147e-06ZM49.5 -3.8147e-06H50.5V-1H49.5V-3.8147e-06ZM49.5 19.4V20.4H50.5V19.4H49.5ZM25.7 19.4V18.4H24.7754L24.7031 19.3218L25.7 19.4ZM25.3 25.5H29.5V23.5H25.3V25.5ZM29.5 25.5C36.2322 25.5 41.721 27.4039 46.0446 31.1553L47.3554 29.6447C42.6123 25.5294 36.6345 23.5 29.5 23.5V25.5ZM46.0446 31.1553C50.3133 34.859 52.5 40.1564 52.5 47.2H54.5C54.5 39.7102 52.1534 33.8077 47.3554 29.6447L46.0446 31.1553ZM52.5 47.2C52.5 54.7019 50.1183 60.4394 45.4401 64.5487L46.7599 66.0513C51.9484 61.4939 54.5 55.1648 54.5 47.2H52.5ZM45.4467 64.5429C40.792 68.56 34.837 70.6 27.5 70.6V72.6C35.2297 72.6 41.6747 70.44 46.7534 66.0571L45.4467 64.5429ZM27.5 70.6C20.9739 70.6 15.4942 69.2303 11.0145 66.5425L9.98551 68.2575C14.8391 71.1697 20.6928 72.6 27.5 72.6V70.6ZM11.0234 66.5479C6.55773 63.8047 3.36431 59.8544 1.43775 54.6527L-0.437749 55.3473C1.63569 60.9456 5.10893 65.2619 9.97658 68.2521L11.0234 66.5479ZM0.99773 55.8673L18.5977 45.7673L17.6023 44.0327L0.00226978 54.1327L0.99773 55.8673ZM17.139 45.1765C17.8813 47.7569 19.1115 49.7862 20.8866 51.1648C22.6656 52.5463 24.8962 53.2 27.5 53.2V51.2C25.2371 51.2 23.4677 50.637 22.1134 49.5852C20.7552 48.5305 19.7187 46.9098 19.061 44.6235L17.139 45.1765ZM27.5 53.2C29.5144 53.2 31.231 52.732 32.5306 51.6761L31.2694 50.1239C30.4356 50.8013 29.219 51.2 27.5 51.2V53.2ZM32.5585 51.6526C33.8715 50.5037 34.5 48.9469 34.5 47.1H32.5C32.5 48.4531 32.0618 49.4296 31.2415 50.1474L32.5585 51.6526ZM34.5 47.1C34.5 45.253 33.9248 43.7058 32.6325 42.6505C31.3791 41.6268 29.6105 41.2 27.5 41.2V43.2C29.3895 43.2 30.6209 43.5899 31.3675 44.1995C32.0753 44.7776 32.5 45.6803 32.5 47.1H34.5ZM27.5 41.2H4.5V43.2H27.5V41.2ZM5.49765 42.2686L8.39765 0.0685539L6.40235 -0.0685635L3.50235 42.1314L5.49765 42.2686ZM7.4 0.999996H49.5V-1H7.4V0.999996ZM48.5 -3.8147e-06V19.4H50.5V-3.8147e-06H48.5ZM49.5 18.4H25.7V20.4H49.5V18.4ZM24.7031 19.3218L24.3031 24.4218L26.2969 24.5782L26.6969 19.4782L24.7031 19.3218Z" fill="#27D274"/>
</svg>
