<svg width="54" height="72" viewBox="0 0 54 72" fill="none" xmlns="http://www.w3.org/2000/svg">
<path d="M47 -3.8147e-06L47.845 0.534691L48.8161 -1H47V-3.8147e-06ZM32.7 22.6L31.855 22.0653L31.0463 23.3433L32.5389 23.5869L32.7 22.6ZM48.2 30.8L47.4432 31.4536L47.4485 31.4597L47.4539 31.4658L48.2 30.8ZM46.6 64.8L47.2766 65.5363L47.282 65.5314L46.6 64.8ZM7.3 64.8L6.61302 65.5268L6.62337 65.5363L7.3 64.8ZM3.8 33.3L4.6408 33.8415L4.64814 33.8298L3.8 33.3ZM24.6 -3.8147e-06V-1H24.0456L23.7519 -0.529776L24.6 -3.8147e-06ZM46.155 -0.5347L31.855 22.0653L33.545 23.1347L47.845 0.534691L46.155 -0.5347ZM32.5389 23.5869C38.8747 24.6214 43.8176 27.2556 47.4432 31.4536L48.9568 30.1464C44.9824 25.5444 39.592 22.712 32.8611 21.6131L32.5389 23.5869ZM47.4539 31.4658C51.1399 35.5967 53 40.7185 53 46.9H55C55 40.2815 52.9935 34.67 48.9461 30.1342L47.4539 31.4658ZM53 46.9C53 53.9829 50.6296 59.6754 45.918 64.0686L47.282 65.5314C52.4371 60.7246 55 54.4837 55 46.9H53ZM45.9234 64.0637C41.2123 68.3928 34.9392 70.6 27 70.6V72.6C35.3275 72.6 42.121 70.2739 47.2766 65.5363L45.9234 64.0637ZM27 70.6C18.9917 70.6 12.6862 68.3914 7.97663 64.0637L6.62337 65.5363C11.7805 70.2753 18.6083 72.6 27 72.6V70.6ZM7.98692 64.0733C3.34025 59.6812 1 53.9874 1 46.9H-1C-1 54.4793 1.52642 60.7188 6.61308 65.5267L7.98692 64.0733ZM1 46.9C1 41.9393 2.22139 37.5978 4.64072 33.8415L2.95929 32.7585C0.311942 36.8689 -1 41.594 -1 46.9H1ZM4.64814 33.8298L25.4481 0.529766L23.7519 -0.529776L2.95186 32.7702L4.64814 33.8298ZM24.6 0.999996H47V-1H24.6V0.999996ZM27 39.1C24.5197 39.1 22.4744 39.7021 21.0532 41.0827C19.6266 42.4686 19 44.4717 19 46.9H21C21 44.795 21.54 43.3981 22.4468 42.5173C23.3589 41.6312 24.8137 41.1 27 41.1V39.1ZM19 46.9C19 49.3283 19.6266 51.3314 21.0532 52.7173C22.4744 54.0979 24.5197 54.7 27 54.7V52.7C24.8137 52.7 23.3589 52.1688 22.4468 51.2827C21.54 50.4019 21 49.005 21 46.9H19ZM27 54.7C29.4803 54.7 31.5256 54.0979 32.9468 52.7173C34.3734 51.3314 35 49.3283 35 46.9H33C33 49.005 32.46 50.4019 31.5532 51.2827C30.6411 52.1688 29.1863 52.7 27 52.7V54.7ZM35 46.9C35 44.4717 34.3734 42.4686 32.9468 41.0827C31.5256 39.7021 29.4803 39.1 27 39.1V41.1C29.1863 41.1 30.6411 41.6312 31.5532 42.5173C32.46 43.3981 33 44.795 33 46.9H35Z" fill="#27D274"/>
</svg>
