<svg width="49" height="70" viewBox="0 0 49 70" fill="none" xmlns="http://www.w3.org/2000/svg">
<path d="M-1.19209e-07 19.4H-1V20.4H-1.19209e-07V19.4ZM-1.19209e-07 -3.8147e-06V-1H-1V-3.8147e-06H-1.19209e-07ZM49 -3.8147e-06H50V-1H49V-3.8147e-06ZM49 16.4L49.9323 16.7618L50 16.5872V16.4H49ZM28.2 70V71H28.8846L29.1323 70.3618L28.2 70ZM6.2 70L5.26751 69.6388L4.74025 71H6.2V70ZM25.8 19.4L26.7325 19.7612L27.2598 18.4H25.8V19.4ZM1 19.4V-3.8147e-06H-1V19.4H1ZM-1.19209e-07 0.999996H49V-1H-1.19209e-07V0.999996ZM48 -3.8147e-06V16.4H50V-3.8147e-06H48ZM48.0677 16.0382L27.2677 69.6382L29.1323 70.3618L49.9323 16.7618L48.0677 16.0382ZM28.2 69H6.2V71H28.2V69ZM7.13249 70.3612L26.7325 19.7612L24.8675 19.0388L5.26751 69.6388L7.13249 70.3612ZM25.8 18.4H-1.19209e-07V20.4H25.8V18.4Z" fill="#27D274"/>
</svg>
