<svg width="54" height="74" viewBox="0 0 54 74" fill="none" xmlns="http://www.w3.org/2000/svg">
<path d="M44.4 35.4L43.8018 34.5986L42.6071 35.4905L43.8855 36.2575L44.4 35.4ZM46.9 67.8L46.2753 67.0191L46.2698 67.0235L46.9 67.8ZM7.4 67.8L6.76982 68.5765L6.77531 68.5809L7.4 67.8ZM10 35.4L10.5145 36.2575L11.7929 35.4905L10.5982 34.5986L10 35.4ZM9.7 6.2L10.3357 6.97193L9.7 6.2ZM44.7 6.2L44.0643 6.97193L44.7 6.2ZM31.7 27.1L32.3075 27.8944L32.3139 27.8894L31.7 27.1ZM31.7 19.6L31.0643 20.3719L31.0888 20.3921L31.1145 20.4107L31.7 19.6ZM22.2 53.9L21.5146 54.6282L21.5366 54.6489L21.5598 54.6682L22.2 53.9ZM32.1 53.9L32.7616 54.6498L32.7644 54.6474L32.1 53.9ZM32.1 45.2L31.3929 45.9071L31.425 45.9392L31.4598 45.9682L32.1 45.2ZM22.2 45.2L22.8616 45.9498L22.8737 45.9392L22.8854 45.9282L22.2 45.2ZM43.8855 36.2575C49.9136 39.8743 52.9 45.1799 52.9 52.3H54.9C54.9 44.4868 51.5531 38.5257 44.9145 34.5425L43.8855 36.2575ZM52.9 52.3C52.9 58.6323 50.6779 63.497 46.2753 67.0191L47.5247 68.5809C52.4554 64.6363 54.9 59.1677 54.9 52.3H52.9ZM46.2698 67.0235C41.9119 70.5604 35.6024 72.4 27.2 72.4V74.4C35.8643 74.4 42.6881 72.5062 47.5302 68.5765L46.2698 67.0235ZM27.2 72.4C18.7989 72.4 12.452 70.5609 8.0247 67.0191L6.77531 68.5809C11.6814 72.5057 18.5345 74.4 27.2 74.4V72.4ZM8.03017 67.0235C3.69279 63.5033 1.5 58.6376 1.5 52.3H-0.5C-0.5 59.1624 1.90721 64.63 6.76983 68.5765L8.03017 67.0235ZM1.5 52.3C1.5 45.1799 4.4864 39.8743 10.5145 36.2575L9.48551 34.5425C2.84693 38.5257 -0.5 44.4868 -0.5 52.3H1.5ZM10.5982 34.5986C6.11224 31.25 3.9 26.8777 3.9 21.4H1.9C1.9 27.5223 4.42109 32.4834 9.40181 36.2014L10.5982 34.5986ZM3.9 21.4C3.9 15.2683 6.05561 10.4967 10.3357 6.97193L9.06429 5.42806C4.27772 9.36995 1.9 14.7317 1.9 21.4H3.9ZM10.3357 6.97193C14.6538 3.41582 20.247 1.59999 27.2 1.59999V-0.400005C19.8863 -0.400005 13.8128 1.51751 9.06429 5.42806L10.3357 6.97193ZM27.2 1.59999C34.153 1.59999 39.7462 3.41582 44.0643 6.97193L45.3357 5.42806C40.5872 1.51751 34.5137 -0.400005 27.2 -0.400005V1.59999ZM44.0643 6.97193C48.3444 10.4967 50.5 15.2683 50.5 21.4H52.5C52.5 14.7317 50.1223 9.36995 45.3357 5.42806L44.0643 6.97193ZM50.5 21.4C50.5 26.8777 48.2878 31.25 43.8018 34.5986L44.9982 36.2014C49.9789 32.4834 52.5 27.5223 52.5 21.4H50.5ZM27.2 17.2C24.9911 17.2 23.1489 17.6428 21.8458 18.6978C20.5023 19.7854 19.9 21.3834 19.9 23.3H21.9C21.9 21.8166 22.3477 20.8646 23.1042 20.2522C23.9011 19.6072 25.2089 19.2 27.2 19.2V17.2ZM19.9 23.3C19.9 25.2166 20.5023 26.8146 21.8458 27.9022C23.1489 28.9572 24.9911 29.4 27.2 29.4V27.4C25.2089 27.4 23.9011 26.9928 23.1042 26.3478C22.3477 25.7354 21.9 24.7834 21.9 23.3H19.9ZM27.2 29.4C29.2184 29.4 30.9526 28.9305 32.3075 27.8944L31.0926 26.3056C30.1808 27.0029 28.9149 27.4 27.2 27.4V29.4ZM32.3139 27.8894C33.772 26.7553 34.5 25.1898 34.5 23.3H32.5C32.5 24.6102 32.028 25.578 31.0861 26.3106L32.3139 27.8894ZM34.5 23.3C34.5 21.4092 33.7695 19.8611 32.2855 18.7893L31.1145 20.4107C32.0305 21.0723 32.5 21.9908 32.5 23.3H34.5ZM32.3357 18.8281C30.9793 17.711 29.2343 17.2 27.2 17.2V19.2C28.899 19.2 30.154 19.6223 31.0643 20.3719L32.3357 18.8281ZM21.5598 54.6682C22.9957 55.8648 24.9181 56.4 27.2 56.4V54.4C25.2152 54.4 23.8043 53.9352 22.8402 53.1318L21.5598 54.6682ZM27.2 56.4C29.4774 56.4 31.3826 55.8666 32.7616 54.6498L31.4384 53.1502C30.5507 53.9334 29.1893 54.4 27.2 54.4V56.4ZM32.7644 54.6474C34.2133 53.3594 34.9 51.6011 34.9 49.5H32.9C32.9 51.1322 32.3867 52.3072 31.4356 53.1526L32.7644 54.6474ZM34.9 49.5C34.9 47.4005 34.2131 45.6592 32.7402 44.4318L31.4598 45.9682C32.3869 46.7408 32.9 47.8662 32.9 49.5H34.9ZM32.8071 44.4929C31.4816 43.1674 29.5437 42.6 27.2 42.6V44.6C29.2563 44.6 30.585 45.0992 31.3929 45.9071L32.8071 44.4929ZM27.2 42.6C24.8508 42.6 22.8982 43.1696 21.5146 44.4718L22.8854 45.9282C23.7684 45.0971 25.1492 44.6 27.2 44.6V42.6ZM21.5384 44.4502C20.1406 45.6835 19.5 47.4194 19.5 49.5H21.5C21.5 47.8473 21.9927 46.7165 22.8616 45.9498L21.5384 44.4502ZM19.5 49.5C19.5 51.583 20.141 53.3354 21.5146 54.6282L22.8854 53.1718C21.9923 52.3313 21.5 51.1504 21.5 49.5H19.5Z" fill="#27D274"/>
</svg>
