<svg width="54" height="72" viewBox="0 0 54 72" fill="none" xmlns="http://www.w3.org/2000/svg">
<path d="M50.2 38.7L49.3592 38.1585L49.3519 38.1702L50.2 38.7ZM29.4 72V73H29.9544L30.2481 72.5298L29.4 72ZM7 72L6.15496 71.4653L5.18389 73H7V72ZM21.3 49.4L22.145 49.9347L22.9537 48.6567L21.4611 48.4131L21.3 49.4ZM5.7 41.3L4.94318 41.9536L4.94847 41.9597L4.95386 41.9658L5.7 41.3ZM7.4 7.3L8.07664 8.03635L8.08197 8.03138L7.4 7.3ZM46.6 7.3L45.918 8.0314L45.9234 8.03633L46.6 7.3ZM53 25.1C53 30.0607 51.7786 34.4022 49.3593 38.1585L51.0407 39.2415C53.6881 35.1311 55 30.406 55 25.1H53ZM49.3519 38.1702L28.5519 71.4702L30.2481 72.5298L51.0481 39.2298L49.3519 38.1702ZM29.4 71H7V73H29.4V71ZM7.84505 72.5347L22.145 49.9347L20.455 48.8653L6.15496 71.4653L7.84505 72.5347ZM21.4611 48.4131C15.1205 47.3779 10.1393 44.7731 6.44614 40.6342L4.95386 41.9658C8.99407 46.4936 14.4128 49.2888 21.1389 50.3869L21.4611 48.4131ZM6.45682 40.6464C2.82989 36.4468 1 31.286 1 25.1H-1C-1 31.714 0.970108 37.3532 4.94318 41.9536L6.45682 40.6464ZM1 25.1C1 18.017 3.37015 12.3612 8.07663 8.03633L6.72338 6.56367C1.56319 11.3055 -1 17.5163 -1 25.1H1ZM8.08197 8.03138C12.7935 3.63822 19.0647 1.4 27 1.4V-0.600002C18.6686 -0.600002 11.8732 1.76178 6.71803 6.56861L8.08197 8.03138ZM27 1.4C34.9353 1.4 41.2065 3.63822 45.918 8.03138L47.282 6.56861C42.1268 1.76178 35.3314 -0.600002 27 -0.600002V1.4ZM45.9234 8.03633C50.6299 12.3612 53 18.017 53 25.1H55C55 17.5163 52.4368 11.3055 47.2766 6.56367L45.9234 8.03633ZM27 32.9C29.4803 32.9 31.5256 32.2979 32.9468 30.9173C34.3734 29.5314 35 27.5283 35 25.1H33C33 27.205 32.46 28.6019 31.5532 29.4827C30.6411 30.3688 29.1863 30.9 27 30.9V32.9ZM35 25.1C35 22.6717 34.3734 20.6686 32.9468 19.2827C31.5256 17.9021 29.4803 17.3 27 17.3V19.3C29.1863 19.3 30.6411 19.8312 31.5532 20.7173C32.46 21.5981 33 22.995 33 25.1H35ZM27 17.3C24.5197 17.3 22.4744 17.9021 21.0532 19.2827C19.6266 20.6686 19 22.6717 19 25.1H21C21 22.995 21.54 21.5981 22.4468 20.7173C23.3589 19.8312 24.8137 19.3 27 19.3V17.3ZM19 25.1C19 27.5283 19.6266 29.5314 21.0532 30.9173C22.4744 32.2979 24.5197 32.9 27 32.9V30.9C24.8137 30.9 23.3589 30.3688 22.4468 29.4827C21.54 28.6019 21 27.205 21 25.1H19Z" fill="#27D274"/>
</svg>
