<svg width="73" height="73" viewBox="0 0 73 73" fill="none" xmlns="http://www.w3.org/2000/svg">
<g clip-path="url(#clip0_1_17)">
<path d="M36.5 73C56.6584 73 73 56.6584 73 36.5C73 16.3416 56.6584 0 36.5 0C16.3416 0 0 16.3416 0 36.5C0 56.6584 16.3416 73 36.5 73Z" fill="#FBFBFB" fill-opacity="0.4"/>
<g clip-path="url(#clip1_1_17)">
<path d="M36 64C50.9117 64 63 51.9117 63 37C63 22.0883 50.9117 10 36 10C21.0883 10 9 22.0883 9 37C9 51.9117 21.0883 64 36 64Z" fill="#F9F9F9"/>
<g clip-path="url(#clip2_1_17)">
<path d="M39.5667 47.2333H38.8C38.8 47.3757 38.8396 47.5153 38.9145 47.6364C38.9894 47.7575 39.0965 47.8554 39.2238 47.9191C39.3511 47.9827 39.4937 48.0097 39.6355 47.9969C39.7773 47.9841 39.9128 47.9321 40.0267 47.8467L39.5667 47.2333ZM42.6333 44.9333L43.0933 44.32C42.9606 44.2205 42.7992 44.1667 42.6333 44.1667C42.4674 44.1667 42.306 44.2205 42.1733 44.32L42.6333 44.9333ZM45.7 47.2333L45.24 47.8467C45.3539 47.9321 45.4893 47.9841 45.6311 47.9969C45.773 48.0097 45.9155 47.9827 46.0429 47.9191C46.1702 47.8554 46.2773 47.7575 46.3522 47.6364C46.427 47.5153 46.4667 47.3757 46.4667 47.2333H45.7ZM42.6333 41.8667C41.6167 41.8667 40.6416 41.4628 39.9228 40.7439C39.2039 40.025 38.8 39.05 38.8 38.0333H37.2667C37.2667 39.4567 37.8321 40.8217 38.8385 41.8281C39.845 42.8346 41.21 43.4 42.6333 43.4V41.8667ZM46.4667 38.0333C46.4667 39.05 46.0628 40.025 45.3439 40.7439C44.625 41.4628 43.65 41.8667 42.6333 41.8667V43.4C44.0567 43.4 45.4217 42.8346 46.4281 41.8281C47.4346 40.8217 48 39.4567 48 38.0333H46.4667ZM42.6333 34.2C43.65 34.2 44.625 34.6039 45.3439 35.3228C46.0628 36.0416 46.4667 37.0167 46.4667 38.0333H48C48 36.61 47.4346 35.245 46.4281 34.2385C45.4217 33.2321 44.0567 32.6667 42.6333 32.6667V34.2ZM42.6333 32.6667C41.21 32.6667 39.845 33.2321 38.8385 34.2385C37.8321 35.245 37.2667 36.61 37.2667 38.0333H38.8C38.8 37.0167 39.2039 36.0416 39.9228 35.3228C40.6416 34.6039 41.6167 34.2 42.6333 34.2V32.6667ZM38.8 41.1V47.2333H40.3333V41.1H38.8ZM40.0267 47.8467L43.0933 45.5467L42.1733 44.32L39.1067 46.62L40.0267 47.8467ZM42.1733 45.5467L45.24 47.8467L46.16 46.62L43.0933 44.32L42.1733 45.5467ZM46.4667 47.2333V41.1H44.9333V47.2333H46.4667ZM48 32.6667V27.3H46.4667V32.6667H48ZM45.7 25H27.3V26.5333H45.7V25ZM25 27.3V45.7H26.5333V27.3H25ZM27.3 48H37.2667V46.4667H27.3V48ZM25 45.7C25 46.31 25.2423 46.895 25.6737 47.3263C26.105 47.7577 26.69 48 27.3 48V46.4667C27.0967 46.4667 26.9017 46.3859 26.7579 46.2421C26.6141 46.0983 26.5333 45.9033 26.5333 45.7H25ZM27.3 25C26.69 25 26.105 25.2423 25.6737 25.6737C25.2423 26.105 25 26.69 25 27.3H26.5333C26.5333 27.0967 26.6141 26.9017 26.7579 26.7579C26.9017 26.6141 27.0967 26.5333 27.3 26.5333V25ZM48 27.3C48 26.69 47.7577 26.105 47.3263 25.6737C46.895 25.2423 46.31 25 45.7 25V26.5333C45.9033 26.5333 46.0983 26.6141 46.2421 26.7579C46.3859 26.9017 46.4667 27.0967 46.4667 27.3H48ZM29.6 32.6667H37.2667V31.1333H29.6V32.6667ZM29.6 37.2667H34.2V35.7333H29.6V37.2667Z" fill="#27D274"/>
</g>
</g>
</g>
<defs>
<clipPath id="clip0_1_17">
<rect width="73" height="73" fill="white"/>
</clipPath>
<clipPath id="clip1_1_17">
<rect width="54" height="54" fill="white" transform="translate(9 10)"/>
</clipPath>
<clipPath id="clip2_1_17">
<rect width="23" height="23" fill="white" transform="translate(25 25)"/>
</clipPath>
</defs>
</svg>
