<svg width="24" height="24" viewBox="0 0 24 24" fill="none" xmlns="http://www.w3.org/2000/svg">
<path d="M12 3C10.8 3 9.59999 3.6 8.99999 4.7C8.4012 4.54669 7.77302 4.55015 7.17594 4.71003C6.57887 4.86991 6.03302 5.18082 5.59095 5.61284C5.14889 6.04486 4.8255 6.58342 4.65194 7.17666C4.47838 7.7699 4.46049 8.39784 4.59999 9C3.59999 9.6 2.89999 10.8 2.89999 12C2.89999 13.2 3.59999 14.4 4.59999 15C4.29999 16.2 4.59999 17.5 5.59999 18.4C6.39999 19.2 7.69999 19.6 8.89999 19.4C9.49999 20.4 10.7 21 11.9 21C13.1 21 14.3 20.4 14.9 19.3C16.1 19.6 17.4 19.3 18.3 18.3C19.1 17.5 19.5 16.3 19.3 15C20.3 14.4 20.9 13.2 20.9 12C20.9 10.8 20.3 9.6 19.2 9C19.5 7.8 19.2 6.5 18.2 5.6C17.7725 5.17793 17.2486 4.86631 16.6736 4.69208C16.0986 4.51785 15.4899 4.48624 14.9 4.6C14.3 3.6 13.1 3 11.9 3H12Z" stroke="#27D274" stroke-width="2" stroke-linecap="round" stroke-linejoin="round"/>
<path d="M9 12L11 14L15 10" stroke="#27D274" stroke-width="2" stroke-linecap="round" stroke-linejoin="round"/>
</svg>
