<svg width="23" height="23" viewBox="0 0 23 23" fill="none" xmlns="http://www.w3.org/2000/svg">
<g clip-path="url(#clip0_3_418)">
<path d="M14.5667 22.2333H13.8C13.8 22.3757 13.8396 22.5153 13.9145 22.6364C13.9894 22.7575 14.0965 22.8554 14.2238 22.9191C14.3511 22.9827 14.4937 23.0097 14.6355 22.9969C14.7773 22.9841 14.9128 22.9321 15.0267 22.8467L14.5667 22.2333ZM17.6333 19.9333L18.0933 19.32C17.9606 19.2205 17.7992 19.1667 17.6333 19.1667C17.4674 19.1667 17.306 19.2205 17.1733 19.32L17.6333 19.9333ZM20.7 22.2333L20.24 22.8467C20.3539 22.9321 20.4893 22.9841 20.6311 22.9969C20.773 23.0097 20.9155 22.9827 21.0429 22.9191C21.1702 22.8554 21.2773 22.7575 21.3522 22.6364C21.427 22.5153 21.4667 22.3757 21.4667 22.2333H20.7ZM17.6333 16.8667C16.6167 16.8667 15.6416 16.4628 14.9228 15.7439C14.2039 15.025 13.8 14.05 13.8 13.0333H12.2667C12.2667 14.4567 12.8321 15.8217 13.8385 16.8281C14.845 17.8346 16.21 18.4 17.6333 18.4V16.8667ZM21.4667 13.0333C21.4667 14.05 21.0628 15.025 20.3439 15.7439C19.625 16.4628 18.65 16.8667 17.6333 16.8667V18.4C19.0567 18.4 20.4217 17.8346 21.4281 16.8281C22.4346 15.8217 23 14.4567 23 13.0333H21.4667ZM17.6333 9.2C18.65 9.2 19.625 9.60387 20.3439 10.3228C21.0628 11.0416 21.4667 12.0167 21.4667 13.0333H23C23 11.61 22.4346 10.245 21.4281 9.23853C20.4217 8.23208 19.0567 7.66667 17.6333 7.66667V9.2ZM17.6333 7.66667C16.21 7.66667 14.845 8.23208 13.8385 9.23853C12.8321 10.245 12.2667 11.61 12.2667 13.0333H13.8C13.8 12.0167 14.2039 11.0416 14.9228 10.3228C15.6416 9.60387 16.6167 9.2 17.6333 9.2V7.66667ZM13.8 16.1V22.2333H15.3333V16.1H13.8ZM15.0267 22.8467L18.0933 20.5467L17.1733 19.32L14.1067 21.62L15.0267 22.8467ZM17.1733 20.5467L20.24 22.8467L21.16 21.62L18.0933 19.32L17.1733 20.5467ZM21.4667 22.2333V16.1H19.9333V22.2333H21.4667ZM23 7.66667V2.3H21.4667V7.66667H23ZM20.7 0H2.3V1.53333H20.7V0ZM0 2.3V20.7H1.53333V2.3H0ZM2.3 23H12.2667V21.4667H2.3V23ZM0 20.7C0 21.31 0.242321 21.895 0.673654 22.3263C1.10499 22.7577 1.69 23 2.3 23V21.4667C2.09667 21.4667 1.90166 21.3859 1.75788 21.2421C1.61411 21.0983 1.53333 20.9033 1.53333 20.7H0ZM2.3 0C1.69 0 1.10499 0.242321 0.673654 0.673654C0.242321 1.10499 0 1.69 0 2.3H1.53333C1.53333 2.09667 1.61411 1.90166 1.75788 1.75788C1.90166 1.61411 2.09667 1.53333 2.3 1.53333V0ZM23 2.3C23 1.69 22.7577 1.10499 22.3263 0.673654C21.895 0.242321 21.31 0 20.7 0V1.53333C20.9033 1.53333 21.0983 1.61411 21.2421 1.75788C21.3859 1.90166 21.4667 2.09667 21.4667 2.3H23ZM4.6 7.66667H12.2667V6.13333H4.6V7.66667ZM4.6 12.2667H9.2V10.7333H4.6V12.2667Z" fill="#27D274"/>
</g>
<defs>
<clipPath id="clip0_3_418">
<rect width="23" height="23" fill="white"/>
</clipPath>
</defs>
</svg>
